<?xml version="1.0" standalone="no"?>
<!DOCTYPE svg PUBLIC "-//W3C//DTD SVG 20010904//EN"
 "http://www.w3.org/TR/2001/REC-SVG-20010904/DTD/svg10.dtd">
<svg version="1.0" xmlns="http://www.w3.org/2000/svg"
 width="200.000000pt" height="200.000000pt" viewBox="0 0 200.000000 200.000000"
 preserveAspectRatio="xMidYMid meet">

<g transform="translate(0.000000,200.000000) scale(0.100000,-0.100000)"
fill="#000000" stroke="none">
<path d="M893 1625 c-39 -7 -97 -24 -128 -39 l-56 -26 -61 31 c-33 17 -62 29
-64 27 -10 -11 25 -87 56 -118 19 -20 108 -80 198 -134 l162 -97 163 96 c89
53 178 114 198 135 31 33 65 107 55 118 -2 2 -31 -10 -64 -27 l-61 -31 -58 26
c-58 26 -183 54 -238 53 -16 -1 -62 -7 -102 -14z"/>
<path d="M601 1410 c-36 -167 10 -348 124 -492 45 -57 146 -147 203 -180 l29
-18 96 75 c86 68 100 75 140 75 39 0 49 5 73 33 l27 32 -62 3 c-60 3 -65 1
-116 -37 -29 -22 -64 -43 -79 -47 -14 -3 -30 -12 -37 -20 -19 -23 -68 -18 -80
10 -16 34 3 66 41 66 16 0 32 -4 35 -10 13 -20 48 -9 104 35 57 43 60 44 142
47 82 3 83 3 102 36 l19 32 -99 0 c-97 0 -98 -1 -142 -35 -29 -24 -54 -35 -76
-35 -19 0 -39 -8 -50 -20 -24 -27 -51 -25 -71 5 -15 23 -15 27 0 50 19 28 43
32 72 10 31 -23 58 -17 112 25 l50 40 109 0 110 0 12 38 c19 59 25 192 11 266
-7 36 -14 66 -16 66 -2 0 -21 -12 -43 -28 -30 -22 -36 -32 -30 -47 13 -33 10
-104 -6 -135 -8 -15 -27 -38 -41 -49 -36 -28 -116 -29 -161 -1 l-32 19 -33
-54 c-18 -30 -35 -55 -38 -55 -3 0 -20 25 -38 55 l-33 54 -35 -21 c-100 -59
-215 7 -213 122 0 25 4 54 8 65 6 15 0 25 -30 47 -22 16 -41 28 -43 28 -2 0
-9 -23 -15 -50z"/>
<path d="M726 1364 c-26 -67 21 -145 87 -147 36 -1 86 26 94 50 3 9 -153 113
-170 113 -3 0 -8 -7 -11 -16z m126 -72 c11 -14 10 -15 -7 -7 -11 5 -40 8 -64
7 -25 -1 -40 2 -35 7 23 23 86 18 106 -7z m-35 -18 c33 -9 19 -21 -16 -16 -17
2 -28 8 -25 13 6 10 11 11 41 3z"/>
<path d="M1173 1329 c-46 -28 -83 -54 -83 -59 0 -21 55 -50 95 -50 45 0 76 24
90 68 8 26 -2 92 -13 92 -4 0 -44 -23 -89 -51z"/>
<path d="M950 990 c0 -13 5 -20 13 -17 6 2 12 10 12 17 0 7 -6 15 -12 18 -8 2
-13 -5 -13 -18z"/>
<path d="M945 871 c-7 -12 12 -24 25 -16 11 7 4 25 -10 25 -5 0 -11 -4 -15 -9z"/>
<path d="M1130 812 c-19 -16 -59 -47 -89 -70 -29 -23 -47 -42 -40 -42 17 0
120 66 169 109 29 25 32 30 15 30 -11 0 -36 -12 -55 -27z"/>
<path d="M320 545 l0 -75 45 0 c56 0 85 25 85 74 0 45 -37 76 -91 76 l-39 0 0
-75z m88 33 c29 -29 7 -78 -35 -78 -21 0 -23 5 -23 45 0 40 2 45 23 45 13 0
28 -5 35 -12z"/>
<path d="M480 545 c0 -60 3 -75 15 -75 9 0 15 9 15 25 0 14 5 25 10 25 6 0 16
-11 22 -25 6 -14 20 -25 30 -25 17 0 17 2 4 29 -14 26 -14 30 -1 41 37 31 1
80 -58 80 l-37 0 0 -75z m75 25 c0 -8 -10 -16 -22 -18 -18 -3 -23 2 -23 18 0
16 5 21 23 18 12 -2 22 -10 22 -18z"/>
<path d="M654 585 c-7 -19 -21 -51 -29 -71 -19 -46 -19 -44 5 -44 11 0 20 7
20 15 0 10 11 15 35 15 24 0 35 -5 35 -15 0 -8 9 -15 20 -15 20 0 20 0 -1 53
-12 28 -25 62 -30 75 -13 33 -38 27 -55 -13z m46 -47 c0 -5 -7 -8 -15 -8 -15
0 -20 21 -8 33 7 7 23 -11 23 -25z"/>
<path d="M750 611 c0 -5 9 -39 21 -76 24 -79 44 -84 68 -15 l15 45 15 -47 c22
-71 42 -64 68 24 12 40 20 74 18 77 -12 11 -33 -12 -39 -43 -10 -51 -22 -52
-36 -1 -15 55 -34 58 -50 8 -19 -57 -26 -59 -39 -9 -7 29 -17 46 -26 46 -8 0
-15 -4 -15 -9z"/>
<path d="M980 546 l0 -76 50 0 c38 0 50 4 50 15 0 10 -10 15 -30 15 -28 0 -29
1 -32 57 -2 46 -7 59 -20 61 -16 3 -18 -6 -18 -72z"/>
<path d="M1122 608 c-25 -25 -14 -58 23 -74 46 -19 46 -38 0 -31 -36 6 -58 -9
-34 -24 20 -13 73 -11 87 3 25 25 14 58 -23 74 -41 17 -47 39 -10 32 29 -6 45
10 24 23 -20 12 -53 11 -67 -3z"/>
<path d="M1255 595 c-32 -31 -33 -74 -2 -103 26 -25 78 -29 96 -9 16 20 4 26
-34 20 -42 -7 -64 24 -46 65 10 21 16 24 46 19 40 -7 55 7 26 22 -32 17 -60
13 -86 -14z"/>
<path d="M1407 552 c-15 -37 -27 -71 -27 -75 0 -13 28 -7 34 8 3 9 18 15 36
15 18 0 33 -6 36 -15 6 -15 34 -21 34 -8 0 4 -12 38 -27 75 -35 90 -51 90 -86
0z m56 -2 c4 -15 0 -20 -13 -20 -13 0 -17 5 -13 20 3 11 9 20 13 20 4 0 10 -9
13 -20z"/>
<path d="M1550 545 c0 -59 3 -75 14 -75 11 0 16 14 18 48 l3 47 30 -47 c17
-28 38 -48 48 -48 15 0 17 10 17 75 0 59 -3 75 -14 75 -11 0 -16 -14 -18 -46
l-3 -46 -32 46 c-49 69 -63 62 -63 -29z"/>
</g>
</svg>
